# This file uses centimeters as units for non-parametric coordinates.

mtllib bullet.mtl
g default
v -0.195694 -0.195694 0.277375
v 0.195694 -0.195694 0.277375
v -0.195694 0.195694 0.277375
v 0.195694 0.195694 0.277375
v -0.217640 0.217640 -0.217640
v 0.217640 0.217640 -0.217640
v -0.217640 -0.217640 -0.217640
v 0.217640 -0.217640 -0.217640
v 0.000000 -0.233617 0.435108
v 0.000000 0.233617 0.435108
v 0.000000 0.293814 -0.293814
v 0.000000 -0.293814 -0.293814
v -0.233617 0.000000 0.435108
v 0.233617 0.000000 0.435108
v -0.293814 0.293814 0.000000
v 0.293814 0.293814 0.000000
v -0.293814 0.000000 -0.293814
v 0.293814 0.000000 -0.293814
v -0.293814 -0.293814 0.000000
v 0.293814 -0.293814 0.000000
v 0.000000 0.000000 0.888759
v 0.000000 0.391751 0.000000
v 0.000000 0.000000 -0.391751
v 0.000000 -0.391751 0.000000
v 0.391751 0.000000 0.000000
v -0.391751 0.000000 0.000000
vt 0.375000 0.000000
vt 0.625000 0.000000
vt 0.375000 0.250000
vt 0.625000 0.250000
vt 0.375000 0.500000
vt 0.625000 0.500000
vt 0.375000 0.750000
vt 0.625000 0.750000
vt 0.375000 1.000000
vt 0.625000 1.000000
vt 0.875000 0.000000
vt 0.875000 0.250000
vt 0.125000 0.000000
vt 0.125000 0.250000
vt 0.500000 0.125000
vt 0.500000 0.375000
vt 0.500000 0.625000
vt 0.500000 0.875000
vt 0.750000 0.125000
vt 0.250000 0.125000
vt 0.500000 0.000000
vt 0.625000 0.125000
vt 0.500000 0.250000
vt 0.375000 0.125000
vt 0.625000 0.375000
vt 0.500000 0.500000
vt 0.375000 0.375000
vt 0.625000 0.625000
vt 0.500000 0.750000
vt 0.375000 0.625000
vt 0.625000 0.875000
vt 0.500000 1.000000
vt 0.375000 0.875000
vt 0.750000 0.000000
vt 0.875000 0.125000
vt 0.750000 0.250000
vt 0.250000 0.000000
vt 0.250000 0.250000
vt 0.125000 0.125000
vn 0.000000 -0.872828 0.488028
vn 0.650441 -0.650440 0.392243
vn 0.872828 0.000000 0.488028
vn 0.000000 0.000000 1.000000
vn 0.650440 0.650440 0.392243
vn 0.000000 0.872828 0.488028
vn -0.650441 0.650440 0.392243
vn -0.872828 -0.000000 0.488028
vn -0.650440 -0.650440 0.392243
vn 0.705753 0.705753 0.061848
vn -0.000000 0.998158 0.060673
vn 0.577350 0.577350 -0.577350
vn 0.000000 0.707107 -0.707107
vn -0.577350 0.577350 -0.577350
vn -0.705753 0.705753 0.061848
vn 0.707107 0.000000 -0.707107
vn 0.000000 0.000000 -1.000000
vn 0.577350 -0.577350 -0.577350
vn 0.000000 -0.707107 -0.707107
vn -0.577350 -0.577350 -0.577350
vn -0.707107 0.000000 -0.707107
vn 0.705753 -0.705753 0.061848
vn -0.000000 -0.998158 0.060673
vn -0.705753 -0.705753 0.061848
vn 0.998158 0.000000 0.060673
vn -0.998158 0.000000 0.060673
s 1
g pCube1
usemtl initialShadingGroup
f 9/21/1 2/2/2 14/22/3 21/15/4
f 14/22/3 4/4/5 10/23/6 21/15/4
f 10/23/6 3/3/7 13/24/8 21/15/4
f 13/24/8 1/1/9 9/21/1 21/15/4
f 10/23/6 4/4/5 16/25/10 22/16/11
f 16/25/10 6/6/12 11/26/13 22/16/11
f 11/26/13 5/5/14 15/27/15 22/16/11
f 15/27/15 3/3/7 10/23/6 22/16/11
f 11/26/13 6/6/12 18/28/16 23/17/17
f 18/28/16 8/8/18 12/29/19 23/17/17
f 12/29/19 7/7/20 17/30/21 23/17/17
f 17/30/21 5/5/14 11/26/13 23/17/17
f 12/29/19 8/8/18 20/31/22 24/18/23
f 20/31/22 2/10/2 9/32/1 24/18/23
f 9/32/1 1/9/9 19/33/24 24/18/23
f 19/33/24 7/7/20 12/29/19 24/18/23
f 20/34/22 8/11/18 18/35/16 25/19/25
f 18/35/16 6/12/12 16/36/10 25/19/25
f 16/36/10 4/4/5 14/22/3 25/19/25
f 14/22/3 2/2/2 20/34/22 25/19/25
f 19/37/24 1/1/9 13/24/8 26/20/26
f 13/24/8 3/3/7 15/38/15 26/20/26
f 15/38/15 5/14/14 17/39/21 26/20/26
f 17/39/21 7/13/20 19/37/24 26/20/26
