# This file uses centimeters as units for non-parametric coordinates.

mtllib rock_2.mtl
g default
v -2.827355 -0.000000 3.067918
v -1.684818 -0.000000 3.294881
v -0.561606 -0.000001 3.802316
v 0.561606 -0.000000 3.149153
v 1.769093 -0.000001 3.261150
v 2.841343 -0.000000 2.495163
v -2.808029 0.981647 3.031109
v -1.684818 1.379914 3.143191
v -0.561606 1.734962 3.367189
v 0.561606 1.085168 3.227715
v 1.684818 1.416156 2.808029
v 2.461094 1.017478 2.808029
v -2.905362 1.960219 2.506577
v -1.556898 2.012770 2.594830
v -0.518966 2.012770 2.594830
v 0.518966 1.678802 2.594830
v 1.556898 1.678802 2.594830
v 2.373534 2.012770 2.316830
v -2.387668 2.884972 2.387668
v -1.432601 3.099769 2.831822
v -0.477534 2.992103 2.813686
v 0.477533 2.992103 2.344718
v 1.432601 2.884972 2.387668
v 2.387668 3.217023 1.961587
v -2.027885 3.490895 1.488522
v -1.288841 3.929674 2.096747
v -0.429614 3.600440 2.148069
v 0.429614 4.287089 2.137468
v 1.288841 3.664679 2.148069
v 1.927065 3.600440 1.877669
v -1.452712 4.306639 1.452712
v -0.871627 4.637496 1.575354
v -0.290542 5.135161 1.418975
v 0.290542 5.135161 1.422605
v 0.871627 4.637496 1.569090
v 1.452712 4.204736 1.452712
v -1.680124 4.162006 0.811818
v -0.871627 4.962024 0.871627
v -0.290542 5.456756 0.871627
v 0.290542 5.661072 0.871627
v 0.871627 4.986783 0.871627
v 1.379263 4.637496 0.871627
v -2.017355 4.447746 0.290542
v -0.871627 5.252012 0.290542
v -0.290542 4.988347 0.290542
v 0.290542 4.637496 0.247276
v 0.871627 5.057403 0.290542
v 1.580743 5.057403 0.290542
v -1.763675 4.158015 -0.290542
v -1.012909 5.260294 -0.290542
v -0.290542 5.057403 -0.141631
v 0.290542 5.254503 -0.290542
v 0.769702 5.336215 -0.290542
v 1.452712 5.261710 -0.290542
v -1.452712 4.637496 -0.871627
v -0.871627 4.637496 -0.871627
v -0.290542 5.057403 -0.871627
v 0.290542 5.057403 -0.871627
v 0.871627 5.166897 -0.871627
v 1.452712 5.087739 -0.871627
v -1.452712 4.291762 -1.452712
v -0.871627 4.260372 -1.404081
v -0.290542 4.637496 -1.729942
v 0.290542 4.385392 -2.022208
v 0.871627 4.190801 -2.022208
v 1.452712 4.943741 -1.452712
v -2.148069 3.600440 -2.148069
v -1.288841 3.600440 -2.148069
v -0.429614 3.793411 -2.118013
v 0.429614 3.943629 -2.289235
v 1.037390 3.890519 -2.148069
v 1.642774 3.954243 -1.866763
v -2.387668 2.884972 -2.387668
v -1.432601 3.356686 -2.600375
v -0.616578 2.968191 -2.340937
v 0.477533 3.705956 -2.901793
v 1.188979 3.468885 -2.668119
v 2.146014 3.262498 -2.111562
v -2.360172 2.012770 -2.594830
v -1.556898 2.012770 -2.724442
v -0.518966 2.012770 -3.217217
v 0.518966 1.628790 -3.175145
v 1.334568 1.831896 -3.211591
v 2.642762 2.910563 -2.322097
v -2.809249 1.282461 -3.405785
v -1.730212 1.017478 -3.313476
v -0.561606 1.770691 -3.673631
v 0.561606 1.413062 -3.479066
v 1.684818 1.017478 -3.518970
v 2.291144 1.017478 -2.726954
v -3.201070 -0.000000 -3.237358
v -1.970969 -0.000001 -3.323493
v -0.921317 -0.000001 -3.791643
v 0.489040 -0.000000 -4.088727
v 1.684818 -0.000001 -3.509638
v 2.685731 -0.000001 -3.040224
v -3.541033 -0.000000 -1.684818
v -2.044529 -0.000000 -1.869388
v -0.921317 -0.000000 -1.869388
v 0.561606 -0.000000 -1.684818
v 1.684818 -0.000000 -1.684818
v 3.526183 -0.000001 -1.684818
v -4.530999 -0.000000 -0.229346
v -1.684818 -0.000000 -0.561606
v -0.561606 -0.000000 -0.561606
v 0.561606 -0.000000 -0.561606
v 1.684818 -0.000000 -0.561606
v 4.757378 -0.000001 -0.561606
v -4.017708 -0.000000 0.561606
v -1.684818 -0.000000 0.561606
v -0.561606 -0.000000 0.561606
v 0.561606 -0.000000 0.561606
v 1.684818 -0.000000 0.561606
v 4.265012 -0.000000 0.561606
v -3.890278 -0.000000 1.684818
v -1.684818 -0.000000 1.684818
v -0.561606 -0.000000 1.684818
v 0.561606 -0.000000 1.684818
v 1.684818 -0.000000 1.684818
v 2.941596 -0.000001 1.687476
v 3.534561 1.256870 -2.004488
v 4.455800 1.895303 -0.561606
v 3.625438 1.687335 0.561606
v 3.259144 1.017478 1.684818
v 3.618829 2.795710 -1.396522
v 3.738489 3.477785 -0.518966
v 3.377307 3.181069 0.518966
v 3.055649 2.355453 1.556898
v 3.009832 3.371617 -1.344269
v 2.736749 3.567770 -0.477534
v 2.505003 3.180851 0.624326
v 2.437842 3.005640 1.432601
v 1.931973 4.211916 -1.288841
v 2.148069 3.843494 -0.429614
v 1.999837 4.000256 0.429614
v 2.148069 3.750358 1.288841
v -3.293594 1.017478 -1.684818
v -3.497366 1.596533 -0.823750
v -3.820205 2.122353 0.357911
v -3.574154 1.725694 1.868040
v -2.594830 2.012770 -1.556898
v -3.217681 2.426966 -0.518966
v -3.262585 2.342532 0.272478
v -3.362832 2.012770 1.556898
v -2.692986 3.181706 -1.432601
v -2.807225 2.884972 -0.477534
v -2.659356 2.884972 0.477534
v -2.955922 2.594081 1.432601
v -2.148069 3.399057 -1.288841
v -2.148069 3.600440 -0.429614
v -2.566666 3.600440 0.429614
v -2.505377 3.422610 1.288841
vt 0.285846 0.153033
vt 0.403571 0.103031
vt 0.411207 0.157757
vt 0.308555 0.199925
vt 0.481951 0.086781
vt 0.483487 0.140424
vt 0.584430 0.116811
vt 0.578373 0.161972
vt 0.740842 0.096681
vt 0.689316 0.156937
vt 0.826601 0.128335
vt 0.767120 0.164959
vt 0.412694 0.216309
vt 0.314847 0.264359
vt 0.486813 0.193175
vt 0.573070 0.209532
vt 0.662805 0.205192
vt 0.738778 0.227793
vt 0.444276 0.249298
vt 0.359225 0.294162
vt 0.505450 0.250460
vt 0.575708 0.260814
vt 0.636882 0.258063
vt 0.698056 0.285354
vt 0.453484 0.296381
vt 0.402582 0.322267
vt 0.508519 0.293094
vt 0.563554 0.293773
vt 0.618589 0.293094
vt 0.659468 0.310413
vt 0.480207 0.329777
vt 0.442988 0.337632
vt 0.517427 0.339793
vt 0.554646 0.339561
vt 0.591866 0.330178
vt 0.629085 0.337632
vt 0.480207 0.374852
vt 0.428422 0.378683
vt 0.517427 0.374852
vt 0.554646 0.374852
vt 0.591866 0.374852
vt 0.624381 0.374852
vt 0.480207 0.412071
vt 0.406821 0.412071
vt 0.517427 0.412071
vt 0.554646 0.414843
vt 0.591866 0.412071
vt 0.637286 0.412071
vt 0.471158 0.449291
vt 0.423070 0.449291
vt 0.517427 0.439753
vt 0.554646 0.449291
vt 0.585337 0.449291
vt 0.629085 0.449291
vt 0.480207 0.486510
vt 0.442988 0.486510
vt 0.517427 0.486510
vt 0.554646 0.486510
vt 0.591866 0.486510
vt 0.629085 0.486510
vt 0.480207 0.520615
vt 0.442988 0.523730
vt 0.517427 0.541487
vt 0.554646 0.560207
vt 0.591866 0.560207
vt 0.629085 0.523730
vt 0.453484 0.568269
vt 0.407955 0.556385
vt 0.500201 0.585357
vt 0.555236 0.598701
vt 0.613178 0.590847
vt 0.641259 0.550251
vt 0.432393 0.612688
vt 0.374784 0.594310
vt 0.489414 0.625779
vt 0.565435 0.639124
vt 0.622888 0.624157
vt 0.673492 0.568196
vt 0.412272 0.644613
vt 0.352778 0.628688
vt 0.494595 0.676627
vt 0.572846 0.676776
vt 0.637362 0.676194
vt 0.710063 0.598429
vt 0.383661 0.730188
vt 0.320454 0.678224
vt 0.488240 0.727845
vt 0.576301 0.719104
vt 0.694530 0.718462
vt 0.740240 0.631991
vt 0.362674 0.749250
vt 0.249473 0.724767
vt 0.460411 0.766241
vt 0.573946 0.761707
vt 0.711881 0.763943
vt 0.766770 0.681260
vt 0.858038 0.595893
vt 0.817840 0.555347
vt 0.932998 0.446322
vt 0.859702 0.456990
vt 0.942432 0.355271
vt 0.859734 0.368476
vt 0.859208 0.200712
vt 0.839337 0.263955
vt 0.767829 0.520131
vt 0.775493 0.463922
vt 0.770266 0.389979
vt 0.769927 0.308904
vt 0.710996 0.517972
vt 0.727967 0.462456
vt 0.719064 0.393069
vt 0.726646 0.325849
vt 0.659783 0.513234
vt 0.673624 0.458199
vt 0.664129 0.403164
vt 0.671247 0.350505
vt 0.204485 0.560072
vt 0.257062 0.559668
vt 0.150129 0.433224
vt 0.234498 0.478732
vt 0.178442 0.382201
vt 0.231930 0.398975
vt 0.181897 0.249750
vt 0.231895 0.281940
vt 0.316878 0.560626
vt 0.286729 0.468796
vt 0.283270 0.407836
vt 0.275548 0.308904
vt 0.363546 0.522442
vt 0.356229 0.461268
vt 0.333903 0.401608
vt 0.342228 0.343397
vt 0.398449 0.513234
vt 0.398449 0.458199
vt 0.371637 0.403164
vt 0.377055 0.358575
vt 0.055824 0.935378
vt 0.087458 0.937593
vt 0.085566 0.900198
vt 0.047082 0.895452
vt 0.114451 0.949632
vt 0.114451 0.900198
vt 0.150720 0.957272
vt 0.152586 0.895452
vt 0.181471 0.942380
vt 0.181471 0.895452
vt 0.207211 0.930308
vt 0.228825 0.895452
vt 0.094817 0.866567
vt 0.021623 0.858023
vt 0.123702 0.866567
vt 0.152586 0.866567
vt 0.181471 0.866567
vt 0.260486 0.866567
vt 0.094817 0.837682
vt 0.034823 0.837682
vt 0.123702 0.837682
vt 0.152586 0.837682
vt 0.181471 0.837682
vt 0.247825 0.837682
vt 0.094817 0.808797
vt 0.038100 0.808797
vt 0.123702 0.808797
vt 0.152586 0.808797
vt 0.181471 0.808797
vt 0.213791 0.808729
vt 0.094817 0.767392
vt 0.065435 0.773229
vt 0.123702 0.754343
vt 0.152586 0.771140
vt 0.183639 0.768260
vt 0.211213 0.787958
vn -0.596178 0.077276 0.799125
vn -0.262169 0.136668 0.955295
vn -0.246063 0.360207 0.899835
vn -0.548016 0.193481 0.813784
vn -0.004253 0.157207 0.987557
vn 0.030327 0.473674 0.880178
vn 0.243919 0.134033 0.960489
vn 0.267460 0.300783 0.915421
vn 0.239727 0.143016 0.960249
vn 0.181552 0.354859 0.917123
vn 0.755898 0.030855 0.653961
vn 0.603944 0.180181 0.776393
vn -0.169905 0.311598 0.934900
vn -0.511381 0.451783 0.731014
vn 0.144262 0.341374 0.928791
vn 0.181179 0.438839 0.880111
vn 0.110350 0.385432 0.916114
vn 0.555749 0.301272 0.774841
vn -0.209805 0.363672 0.907593
vn -0.541807 0.447045 0.711756
vn 0.126997 0.196882 0.972167
vn 0.091950 0.200281 0.975414
vn 0.141502 0.232424 0.962266
vn 0.577742 0.399762 0.711621
vn -0.294398 0.676138 0.675401
vn -0.606854 0.677165 0.416144
vn 0.036766 0.530817 0.846689
vn 0.053314 0.498018 0.865526
vn 0.246616 0.413080 0.876667
vn 0.513376 0.578859 0.633535
vn -0.314921 0.651523 0.690176
vn -0.637408 0.673717 0.373920
vn -0.279356 0.633282 0.721744
vn 0.120604 0.665817 0.736304
vn 0.479024 0.652566 0.587106
vn 0.521905 0.689415 0.502317
vn -0.552470 0.759584 0.343233
vn -0.603789 0.689791 0.399532
vn -0.230203 0.969660 -0.082258
vn 0.233487 0.963790 -0.128815
vn 0.484517 0.844178 0.229363
vn 0.624959 0.689438 0.366199
vn -0.442184 0.893153 0.082160
vn -0.713534 0.697336 0.067763
vn 0.116781 0.955533 -0.270775
vn 0.020867 0.988468 -0.149982
vn 0.036818 0.974072 0.223224
vn 0.739082 0.642276 0.203073
vn -0.445787 0.848399 -0.285470
vn -0.769448 0.589005 -0.247026
vn 0.079735 0.996775 0.009008
vn -0.187387 0.963225 0.192572
vn -0.119054 0.981064 0.152772
vn 0.691678 0.721799 0.024242
vn -0.388382 0.810786 -0.437932
vn -0.636381 0.725282 -0.262650
vn -0.185294 0.896530 -0.402369
vn -0.012132 0.895211 -0.445478
vn -0.039672 0.880455 -0.472466
vn 0.614130 0.734890 -0.287717
vn -0.286596 0.738229 -0.610640
vn -0.428962 0.795052 -0.428818
vn -0.247810 0.756622 -0.605073
vn -0.037947 0.703137 -0.710041
vn 0.147198 0.654137 -0.741915
vn 0.320998 0.734826 -0.597487
vn -0.046654 0.640302 -0.766705
vn -0.519359 0.729462 -0.445141
vn -0.327065 0.578702 -0.747083
vn -0.172950 0.658734 -0.732228
vn 0.340781 0.646341 -0.682724
vn 0.481129 0.595512 -0.643335
vn -0.095847 0.417235 -0.903730
vn -0.713390 0.229659 -0.662065
vn -0.171915 0.408377 -0.896478
vn -0.117045 0.434290 -0.893136
vn 0.279586 0.439457 -0.853644
vn 0.424119 0.556982 -0.714069
vn -0.160420 0.462106 -0.872195
vn -0.626181 0.517229 -0.583413
vn -0.224676 0.492547 -0.840784
vn -0.002343 0.421073 -0.907024
vn 0.346520 0.296593 -0.889919
vn 0.525402 0.341464 -0.779330
vn -0.225635 0.253673 -0.940606
vn -0.603503 0.397310 -0.691324
vn -0.166881 0.397974 -0.902091
vn 0.102456 0.335793 -0.936347
vn 0.434842 0.244658 -0.866634
vn 0.615064 0.175222 -0.768761
vn -0.184953 0.022156 -0.982498
vn -0.784638 0.176359 -0.594341
vn -0.192158 0.179743 -0.964763
vn 0.095294 0.226002 -0.969454
vn 0.407370 0.231347 -0.883475
vn 0.662565 0.157967 -0.732157
vn -0.000000 -1.000000 0.000000
vn -0.000000 -1.000000 0.000000
vn -0.000000 -1.000000 -0.000000
vn -0.000000 -1.000000 -0.000000
vn 0.000000 -1.000000 0.000000
vn 0.000000 -1.000000 -0.000000
vn 0.000000 -1.000000 -0.000000
vn -0.000000 -1.000000 -0.000000
vn -0.000000 -1.000000 0.000000
vn -0.000000 -1.000000 0.000000
vn -0.000000 -1.000000 0.000000
vn -0.000000 -1.000000 0.000000
vn 0.000000 -1.000000 -0.000000
vn 0.000000 -1.000000 0.000000
vn 0.000000 -1.000000 -0.000000
vn 0.000000 -1.000000 -0.000000
vn -0.000000 -1.000000 0.000000
vn -0.000000 -1.000000 0.000000
vn 0.000000 -1.000000 0.000000
vn 0.000000 -1.000000 0.000000
vn 0.000000 -1.000000 0.000000
vn 0.000000 -1.000000 0.000000
vn -0.000000 -1.000000 -0.000000
vn -0.000000 -1.000000 -0.000000
vn -0.000000 -1.000000 -0.000000
vn 0.000000 -1.000000 -0.000000
vn -0.000000 -1.000000 0.000000
vn -0.000000 -1.000000 0.000000
vn -0.000000 -1.000000 -0.000000
vn -0.000000 -1.000000 -0.000000
vn -0.000000 -1.000000 -0.000000
vn 0.000000 -1.000000 -0.000000
vn -0.000000 -1.000000 0.000000
vn 0.000000 -1.000000 0.000000
vn -0.000000 -1.000000 0.000000
vn 0.000000 -1.000000 0.000000
vn 0.743775 0.042423 -0.667083
vn 0.703748 0.114987 -0.701082
vn 0.984923 0.133563 -0.109939
vn 0.973183 0.222871 -0.056959
vn 0.815976 0.171930 0.551927
vn 0.842253 0.191759 0.503823
vn 0.839093 0.041905 0.542372
vn 0.821114 0.125457 0.556805
vn 0.699382 0.344629 -0.626176
vn 0.784078 0.616638 0.070561
vn 0.667551 0.547692 0.504389
vn 0.803616 0.318157 0.502968
vn 0.468225 0.790842 -0.394125
vn 0.412439 0.903719 0.114830
vn 0.516031 0.795420 0.317834
vn 0.687027 0.611027 0.393243
vn 0.735115 0.620305 -0.273547
vn 0.760442 0.644353 0.080848
vn 0.825874 0.540757 0.159729
vn 0.782256 0.578682 0.230659
vn -0.889351 0.272121 -0.367431
vn -0.858622 0.371919 -0.352768
vn -0.929347 0.315761 -0.191334
vn -0.850698 0.397673 -0.343756
vn -0.972829 0.211044 0.095202
vn -0.923837 0.375839 0.072591
vn -0.932014 0.108228 0.345885
vn -0.897282 0.215337 0.385376
vn -0.862733 0.388211 -0.324014
vn -0.797662 0.516432 -0.311501
vn -0.693438 0.720512 0.002457
vn -0.669059 0.678623 0.303034
vn -0.881276 0.420806 -0.215117
vn -0.840880 0.523251 -0.138304
vn -0.850928 0.524970 -0.018122
vn -0.784337 0.585170 0.205894
vn -0.743418 0.665770 -0.063867
vn -0.800534 0.575821 -0.166060
vn -0.836370 0.548147 0.004480
vn -0.763288 0.587739 0.268243
s 1
g pCube3
usemtl lambert3SG
f 1/1/1 2/2/2 8/3/3 7/4/4
f 2/2/2 3/5/5 9/6/6 8/3/3
f 3/5/5 4/7/7 10/8/8 9/6/6
f 4/7/7 5/9/9 11/10/10 10/8/8
f 5/9/9 6/11/11 12/12/12 11/10/10
f 7/4/4 8/3/3 14/13/13 13/14/14
f 8/3/3 9/6/6 15/15/15 14/13/13
f 9/6/6 10/8/8 16/16/16 15/15/15
f 10/8/8 11/10/10 17/17/17 16/16/16
f 11/10/10 12/12/12 18/18/18 17/17/17
f 13/14/14 14/13/13 20/19/19 19/20/20
f 14/13/13 15/15/15 21/21/21 20/19/19
f 15/15/15 16/16/16 22/22/22 21/21/21
f 16/16/16 17/17/17 23/23/23 22/22/22
f 17/17/17 18/18/18 24/24/24 23/23/23
f 19/20/20 20/19/19 26/25/25 25/26/26
f 20/19/19 21/21/21 27/27/27 26/25/25
f 21/21/21 22/22/22 28/28/28 27/27/27
f 22/22/22 23/23/23 29/29/29 28/28/28
f 23/23/23 24/24/24 30/30/30 29/29/29
f 25/26/26 26/25/25 32/31/31 31/32/32
f 26/25/25 27/27/27 33/33/33 32/31/31
f 27/27/27 28/28/28 34/34/34 33/33/33
f 28/28/28 29/29/29 35/35/35 34/34/34
f 29/29/29 30/30/30 36/36/36 35/35/35
f 31/32/32 32/31/31 38/37/37 37/38/38
f 32/31/31 33/33/33 39/39/39 38/37/37
f 33/33/33 34/34/34 40/40/40 39/39/39
f 34/34/34 35/35/35 41/41/41 40/40/40
f 35/35/35 36/36/36 42/42/42 41/41/41
f 37/38/38 38/37/37 44/43/43 43/44/44
f 38/37/37 39/39/39 45/45/45 44/43/43
f 39/39/39 40/40/40 46/46/46 45/45/45
f 40/40/40 41/41/41 47/47/47 46/46/46
f 41/41/41 42/42/42 48/48/48 47/47/47
f 43/44/44 44/43/43 50/49/49 49/50/50
f 44/43/43 45/45/45 51/51/51 50/49/49
f 45/45/45 46/46/46 52/52/52 51/51/51
f 46/46/46 47/47/47 53/53/53 52/52/52
f 47/47/47 48/48/48 54/54/54 53/53/53
f 49/50/50 50/49/49 56/55/55 55/56/56
f 50/49/49 51/51/51 57/57/57 56/55/55
f 51/51/51 52/52/52 58/58/58 57/57/57
f 52/52/52 53/53/53 59/59/59 58/58/58
f 53/53/53 54/54/54 60/60/60 59/59/59
f 55/56/56 56/55/55 62/61/61 61/62/62
f 56/55/55 57/57/57 63/63/63 62/61/61
f 57/57/57 58/58/58 64/64/64 63/63/63
f 58/58/58 59/59/59 65/65/65 64/64/64
f 59/59/59 60/60/60 66/66/66 65/65/65
f 61/62/62 62/61/61 68/67/67 67/68/68
f 62/61/61 63/63/63 69/69/69 68/67/67
f 63/63/63 64/64/64 70/70/70 69/69/69
f 64/64/64 65/65/65 71/71/71 70/70/70
f 65/65/65 66/66/66 72/72/72 71/71/71
f 67/68/68 68/67/67 74/73/73 73/74/74
f 68/67/67 69/69/69 75/75/75 74/73/73
f 69/69/69 70/70/70 76/76/76 75/75/75
f 70/70/70 71/71/71 77/77/77 76/76/76
f 71/71/71 72/72/72 78/78/78 77/77/77
f 73/74/74 74/73/73 80/79/79 79/80/80
f 74/73/73 75/75/75 81/81/81 80/79/79
f 75/75/75 76/76/76 82/82/82 81/81/81
f 76/76/76 77/77/77 83/83/83 82/82/82
f 77/77/77 78/78/78 84/84/84 83/83/83
f 79/80/80 80/79/79 86/85/85 85/86/86
f 80/79/79 81/81/81 87/87/87 86/85/85
f 81/81/81 82/82/82 88/88/88 87/87/87
f 82/82/82 83/83/83 89/89/89 88/88/88
f 83/83/83 84/84/84 90/90/90 89/89/89
f 85/86/86 86/85/85 92/91/91 91/92/92
f 86/85/85 87/87/87 93/93/93 92/91/91
f 87/87/87 88/88/88 94/94/94 93/93/93
f 88/88/88 89/89/89 95/95/95 94/94/94
f 89/89/89 90/90/90 96/96/96 95/95/95
s 2
f 91/137/97 92/138/98 98/139/99 97/140/100
f 92/138/98 93/141/101 99/142/102 98/139/99
f 93/141/101 94/143/103 100/144/104 99/142/102
f 94/143/103 95/145/105 101/146/106 100/144/104
f 95/145/105 96/147/107 102/148/108 101/146/106
f 97/140/100 98/139/99 104/149/109 103/150/110
f 98/139/99 99/142/102 105/151/111 104/149/109
f 99/142/102 100/144/104 106/152/112 105/151/111
f 100/144/104 101/146/106 107/153/113 106/152/112
f 101/146/106 102/148/108 108/154/114 107/153/113
f 103/150/110 104/149/109 110/155/115 109/156/116
f 104/149/109 105/151/111 111/157/117 110/155/115
f 105/151/111 106/152/112 112/158/118 111/157/117
f 106/152/112 107/153/113 113/159/119 112/158/118
f 107/153/113 108/154/114 114/160/120 113/159/119
f 109/156/116 110/155/115 116/161/121 115/162/122
f 110/155/115 111/157/117 117/163/123 116/161/121
f 111/157/117 112/158/118 118/164/124 117/163/123
f 112/158/118 113/159/119 119/165/125 118/164/124
f 113/159/119 114/160/120 120/166/126 119/165/125
f 115/162/122 116/161/121 2/167/127 1/168/128
f 116/161/121 117/163/123 3/169/129 2/167/127
f 117/163/123 118/164/124 4/170/130 3/169/129
f 118/164/124 119/165/125 5/171/131 4/170/130
f 119/165/125 120/166/126 6/172/132 5/171/131
s 1
f 102/97/133 96/96/96 90/90/90 121/98/134
f 108/99/135 102/97/133 121/98/134 122/100/136
f 114/101/137 108/99/135 122/100/136 123/102/138
f 120/103/139 114/101/137 123/102/138 124/104/140
f 6/11/11 120/103/139 124/104/140 12/12/12
f 121/98/134 90/90/90 84/84/84 125/105/141
f 122/100/136 121/98/134 125/105/141 126/106/142
f 123/102/138 122/100/136 126/106/142 127/107/143
f 124/104/140 123/102/138 127/107/143 128/108/144
f 12/12/12 124/104/140 128/108/144 18/18/18
f 125/105/141 84/84/84 78/78/78 129/109/145
f 126/106/142 125/105/141 129/109/145 130/110/146
f 127/107/143 126/106/142 130/110/146 131/111/147
f 128/108/144 127/107/143 131/111/147 132/112/148
f 18/18/18 128/108/144 132/112/148 24/24/24
f 129/109/145 78/78/78 72/72/72 133/113/149
f 130/110/146 129/109/145 133/113/149 134/114/150
f 131/111/147 130/110/146 134/114/150 135/115/151
f 132/112/148 131/111/147 135/115/151 136/116/152
f 24/24/24 132/112/148 136/116/152 30/30/30
f 133/113/149 72/72/72 66/66/66 60/60/60
f 134/114/150 133/113/149 60/60/60 54/54/54
f 135/115/151 134/114/150 54/54/54 48/48/48
f 136/116/152 135/115/151 48/48/48 42/42/42
f 30/30/30 136/116/152 42/42/42 36/36/36
f 91/92/92 97/117/153 137/118/154 85/86/86
f 97/117/153 103/119/155 138/120/156 137/118/154
f 103/119/155 109/121/157 139/122/158 138/120/156
f 109/121/157 115/123/159 140/124/160 139/122/158
f 115/123/159 1/1/1 7/4/4 140/124/160
f 85/86/86 137/118/154 141/125/161 79/80/80
f 137/118/154 138/120/156 142/126/162 141/125/161
f 138/120/156 139/122/158 143/127/163 142/126/162
f 139/122/158 140/124/160 144/128/164 143/127/163
f 140/124/160 7/4/4 13/14/14 144/128/164
f 79/80/80 141/125/161 145/129/165 73/74/74
f 141/125/161 142/126/162 146/130/166 145/129/165
f 142/126/162 143/127/163 147/131/167 146/130/166
f 143/127/163 144/128/164 148/132/168 147/131/167
f 144/128/164 13/14/14 19/20/20 148/132/168
f 73/74/74 145/129/165 149/133/169 67/68/68
f 145/129/165 146/130/166 150/134/170 149/133/169
f 146/130/166 147/131/167 151/135/171 150/134/170
f 147/131/167 148/132/168 152/136/172 151/135/171
f 148/132/168 19/20/20 25/26/26 152/136/172
f 67/68/68 149/133/169 55/56/56 61/62/62
f 149/133/169 150/134/170 49/50/50 55/56/56
f 150/134/170 151/135/171 43/44/44 49/50/50
f 151/135/171 152/136/172 37/38/38 43/44/44
f 152/136/172 25/26/26 31/32/32 37/38/38
